<mxfile host="app.diagrams.net" agent="Mozilla/5.0 (Windows NT 10.0; Win64; x64) AppleWebKit/537.36 (KHTML, like Gecko) Chrome/128.0.0.0 Safari/537.36" version="24.7.14">
  <diagram name="Page-1" id="4gbydLWbNtUlYTXZRL-L">
    <mxGraphModel dx="1434" dy="738" grid="1" gridSize="10" guides="1" tooltips="1" connect="1" arrows="1" fold="1" page="1" pageScale="1" pageWidth="850" pageHeight="1100" math="0" shadow="0">
      <root>
        <mxCell id="0" />
        <mxCell id="1" parent="0" />
        <mxCell id="vapV2GEzPmKjDF6dZoIv-3" value="start" style="rounded=1;whiteSpace=wrap;html=1;fontFamily=source code pro;fontSource=https%3A%2F%2Ffonts.googleapis.com%2Fcss%3Ffamily%3Dsource%2Bcode%2Bpro;" vertex="1" parent="1">
          <mxGeometry x="210" y="40" width="60" height="20" as="geometry" />
        </mxCell>
        <mxCell id="vapV2GEzPmKjDF6dZoIv-4" value="prompt user for&lt;div&gt;average grade&lt;/div&gt;" style="shape=parallelogram;perimeter=parallelogramPerimeter;whiteSpace=wrap;html=1;fixedSize=1;fontFamily=source code pro;fontSource=https%3A%2F%2Ffonts.googleapis.com%2Fcss%3Ffamily%3Dsource%2Bcode%2Bpro;" vertex="1" parent="1">
          <mxGeometry x="170" y="150" width="140" height="30" as="geometry" />
        </mxCell>
        <mxCell id="vapV2GEzPmKjDF6dZoIv-5" value="userGrade &amp;gt;= PASS_GRADE ?" style="rhombus;whiteSpace=wrap;html=1;strokeColor=default;align=center;verticalAlign=middle;fontFamily=source code pro;fontSource=https%3A%2F%2Ffonts.googleapis.com%2Fcss%3Ffamily%3Dsource%2Bcode%2Bpro;fontSize=12;fontColor=default;fillColor=default;" vertex="1" parent="1">
          <mxGeometry x="160" y="270" width="160" height="80" as="geometry" />
        </mxCell>
        <mxCell id="vapV2GEzPmKjDF6dZoIv-7" value="prompt user for&lt;div&gt;average grade&lt;/div&gt;" style="shape=parallelogram;perimeter=parallelogramPerimeter;whiteSpace=wrap;html=1;fixedSize=1;fontFamily=source code pro;fontSource=https://fonts.googleapis.com/css?family=source+code+pro;" vertex="1" parent="1">
          <mxGeometry x="170" y="150" width="140" height="30" as="geometry" />
        </mxCell>
        <mxCell id="vapV2GEzPmKjDF6dZoIv-8" value="read input and assign value&lt;div&gt;to userGrade&lt;/div&gt;" style="shape=parallelogram;perimeter=parallelogramPerimeter;whiteSpace=wrap;html=1;fixedSize=1;fontFamily=source code pro;fontSource=https://fonts.googleapis.com/css?family=source+code+pro;" vertex="1" parent="1">
          <mxGeometry x="170" y="200" width="140" height="50" as="geometry" />
        </mxCell>
        <mxCell id="vapV2GEzPmKjDF6dZoIv-9" value="create constant variable PASS_GRADE and assign it a value of 80" style="rounded=0;whiteSpace=wrap;html=1;strokeColor=default;align=center;verticalAlign=middle;fontFamily=source code pro;fontSource=https%3A%2F%2Ffonts.googleapis.com%2Fcss%3Ffamily%3Dsource%2Bcode%2Bpro;fontSize=12;fontColor=default;fillColor=default;" vertex="1" parent="1">
          <mxGeometry x="150" y="80" width="180" height="50" as="geometry" />
        </mxCell>
        <mxCell id="vapV2GEzPmKjDF6dZoIv-10" value="Display &quot;You Passed&quot;" style="shape=parallelogram;perimeter=parallelogramPerimeter;whiteSpace=wrap;html=1;fixedSize=1;strokeColor=default;align=center;verticalAlign=middle;fontFamily=source code pro;fontSource=https%3A%2F%2Ffonts.googleapis.com%2Fcss%3Ffamily%3Dsource%2Bcode%2Bpro;fontSize=12;fontColor=default;fillColor=default;" vertex="1" parent="1">
          <mxGeometry x="40" y="330" width="120" height="40" as="geometry" />
        </mxCell>
        <mxCell id="vapV2GEzPmKjDF6dZoIv-11" value="Display &quot;You Failed&quot;" style="shape=parallelogram;perimeter=parallelogramPerimeter;whiteSpace=wrap;html=1;fixedSize=1;strokeColor=default;align=center;verticalAlign=middle;fontFamily=source code pro;fontSource=https%3A%2F%2Ffonts.googleapis.com%2Fcss%3Ffamily%3Dsource%2Bcode%2Bpro;fontSize=12;fontColor=default;fillColor=default;" vertex="1" parent="1">
          <mxGeometry x="320" y="330" width="120" height="40" as="geometry" />
        </mxCell>
        <mxCell id="vapV2GEzPmKjDF6dZoIv-12" value="end" style="rounded=1;whiteSpace=wrap;html=1;fontFamily=source code pro;fontSource=https%3A%2F%2Ffonts.googleapis.com%2Fcss%3Ffamily%3Dsource%2Bcode%2Bpro;" vertex="1" parent="1">
          <mxGeometry x="209.93" y="410" width="60" height="20" as="geometry" />
        </mxCell>
        <mxCell id="vapV2GEzPmKjDF6dZoIv-13" value="" style="endArrow=classic;html=1;rounded=0;fontFamily=source code pro;fontSource=https%3A%2F%2Ffonts.googleapis.com%2Fcss%3Ffamily%3Dsource%2Bcode%2Bpro;fontSize=12;fontColor=default;" edge="1" parent="1">
          <mxGeometry width="50" height="50" relative="1" as="geometry">
            <mxPoint x="239.86" y="60" as="sourcePoint" />
            <mxPoint x="239.86" y="80" as="targetPoint" />
          </mxGeometry>
        </mxCell>
        <mxCell id="vapV2GEzPmKjDF6dZoIv-14" value="" style="endArrow=classic;html=1;rounded=0;fontFamily=source code pro;fontSource=https%3A%2F%2Ffonts.googleapis.com%2Fcss%3Ffamily%3Dsource%2Bcode%2Bpro;fontSize=12;fontColor=default;" edge="1" parent="1">
          <mxGeometry width="50" height="50" relative="1" as="geometry">
            <mxPoint x="239.86" y="130" as="sourcePoint" />
            <mxPoint x="239.86" y="150" as="targetPoint" />
          </mxGeometry>
        </mxCell>
        <mxCell id="vapV2GEzPmKjDF6dZoIv-15" value="" style="endArrow=classic;html=1;rounded=0;fontFamily=source code pro;fontSource=https%3A%2F%2Ffonts.googleapis.com%2Fcss%3Ffamily%3Dsource%2Bcode%2Bpro;fontSize=12;fontColor=default;" edge="1" parent="1">
          <mxGeometry width="50" height="50" relative="1" as="geometry">
            <mxPoint x="239.86" y="180" as="sourcePoint" />
            <mxPoint x="239.86" y="200" as="targetPoint" />
          </mxGeometry>
        </mxCell>
        <mxCell id="vapV2GEzPmKjDF6dZoIv-16" value="" style="endArrow=classic;html=1;rounded=0;fontFamily=source code pro;fontSource=https%3A%2F%2Ffonts.googleapis.com%2Fcss%3Ffamily%3Dsource%2Bcode%2Bpro;fontSize=12;fontColor=default;" edge="1" parent="1">
          <mxGeometry width="50" height="50" relative="1" as="geometry">
            <mxPoint x="239.86" y="250" as="sourcePoint" />
            <mxPoint x="239.86" y="270" as="targetPoint" />
          </mxGeometry>
        </mxCell>
        <mxCell id="vapV2GEzPmKjDF6dZoIv-17" value="" style="endArrow=classic;html=1;rounded=0;fontFamily=source code pro;fontSource=https%3A%2F%2Ffonts.googleapis.com%2Fcss%3Ffamily%3Dsource%2Bcode%2Bpro;fontSize=12;fontColor=default;" edge="1" parent="1">
          <mxGeometry width="50" height="50" relative="1" as="geometry">
            <mxPoint x="99.86000000000001" y="310" as="sourcePoint" />
            <mxPoint x="99.86000000000001" y="330" as="targetPoint" />
          </mxGeometry>
        </mxCell>
        <mxCell id="vapV2GEzPmKjDF6dZoIv-18" value="" style="endArrow=classic;html=1;rounded=0;fontFamily=source code pro;fontSource=https%3A%2F%2Ffonts.googleapis.com%2Fcss%3Ffamily%3Dsource%2Bcode%2Bpro;fontSize=12;fontColor=default;" edge="1" parent="1">
          <mxGeometry width="50" height="50" relative="1" as="geometry">
            <mxPoint x="239.79000000000002" y="390" as="sourcePoint" />
            <mxPoint x="239.79000000000002" y="410" as="targetPoint" />
          </mxGeometry>
        </mxCell>
        <mxCell id="vapV2GEzPmKjDF6dZoIv-19" value="" style="endArrow=classic;html=1;rounded=0;fontFamily=source code pro;fontSource=https%3A%2F%2Ffonts.googleapis.com%2Fcss%3Ffamily%3Dsource%2Bcode%2Bpro;fontSize=12;fontColor=default;" edge="1" parent="1">
          <mxGeometry width="50" height="50" relative="1" as="geometry">
            <mxPoint x="379.86" y="310" as="sourcePoint" />
            <mxPoint x="379.86" y="330" as="targetPoint" />
          </mxGeometry>
        </mxCell>
        <mxCell id="vapV2GEzPmKjDF6dZoIv-20" value="" style="endArrow=none;html=1;rounded=0;fontFamily=source code pro;fontSource=https%3A%2F%2Ffonts.googleapis.com%2Fcss%3Ffamily%3Dsource%2Bcode%2Bpro;fontSize=12;fontColor=default;" edge="1" parent="1">
          <mxGeometry width="50" height="50" relative="1" as="geometry">
            <mxPoint x="100" y="310" as="sourcePoint" />
            <mxPoint x="160" y="309.76" as="targetPoint" />
          </mxGeometry>
        </mxCell>
        <mxCell id="vapV2GEzPmKjDF6dZoIv-27" value="true" style="edgeLabel;html=1;align=center;verticalAlign=middle;resizable=0;points=[];strokeColor=default;fontFamily=source code pro;fontSource=https%3A%2F%2Ffonts.googleapis.com%2Fcss%3Ffamily%3Dsource%2Bcode%2Bpro;fontSize=12;fontColor=default;fillColor=default;" vertex="1" connectable="0" parent="vapV2GEzPmKjDF6dZoIv-20">
          <mxGeometry x="-0.0818" y="-1" relative="1" as="geometry">
            <mxPoint x="2" y="-1" as="offset" />
          </mxGeometry>
        </mxCell>
        <mxCell id="vapV2GEzPmKjDF6dZoIv-21" value="" style="endArrow=none;html=1;rounded=0;fontFamily=source code pro;fontSource=https%3A%2F%2Ffonts.googleapis.com%2Fcss%3Ffamily%3Dsource%2Bcode%2Bpro;fontSize=12;fontColor=default;" edge="1" parent="1">
          <mxGeometry width="50" height="50" relative="1" as="geometry">
            <mxPoint x="320" y="310" as="sourcePoint" />
            <mxPoint x="380" y="309.76" as="targetPoint" />
          </mxGeometry>
        </mxCell>
        <mxCell id="vapV2GEzPmKjDF6dZoIv-28" value="false" style="edgeLabel;html=1;align=center;verticalAlign=middle;resizable=0;points=[];strokeColor=default;fontFamily=source code pro;fontSource=https%3A%2F%2Ffonts.googleapis.com%2Fcss%3Ffamily%3Dsource%2Bcode%2Bpro;fontSize=12;fontColor=default;fillColor=default;" vertex="1" connectable="0" parent="vapV2GEzPmKjDF6dZoIv-21">
          <mxGeometry x="0.0666" y="-1" relative="1" as="geometry">
            <mxPoint x="-2" y="-1" as="offset" />
          </mxGeometry>
        </mxCell>
        <mxCell id="vapV2GEzPmKjDF6dZoIv-22" value="" style="endArrow=none;html=1;rounded=0;fontFamily=source code pro;fontSource=https%3A%2F%2Ffonts.googleapis.com%2Fcss%3Ffamily%3Dsource%2Bcode%2Bpro;fontSize=12;fontColor=default;" edge="1" parent="1">
          <mxGeometry width="50" height="50" relative="1" as="geometry">
            <mxPoint x="99.93" y="390" as="sourcePoint" />
            <mxPoint x="239.93" y="390" as="targetPoint" />
          </mxGeometry>
        </mxCell>
        <mxCell id="vapV2GEzPmKjDF6dZoIv-23" value="" style="endArrow=none;html=1;rounded=0;fontFamily=source code pro;fontSource=https%3A%2F%2Ffonts.googleapis.com%2Fcss%3Ffamily%3Dsource%2Bcode%2Bpro;fontSize=12;fontColor=default;" edge="1" parent="1">
          <mxGeometry width="50" height="50" relative="1" as="geometry">
            <mxPoint x="239.93" y="390.24" as="sourcePoint" />
            <mxPoint x="379.92999999999995" y="390" as="targetPoint" />
          </mxGeometry>
        </mxCell>
        <mxCell id="vapV2GEzPmKjDF6dZoIv-24" value="" style="endArrow=none;html=1;rounded=0;fontFamily=source code pro;fontSource=https%3A%2F%2Ffonts.googleapis.com%2Fcss%3Ffamily%3Dsource%2Bcode%2Bpro;fontSize=12;fontColor=default;" edge="1" parent="1">
          <mxGeometry width="50" height="50" relative="1" as="geometry">
            <mxPoint x="99.79000000000002" y="370.24" as="sourcePoint" />
            <mxPoint x="99.79000000000002" y="390" as="targetPoint" />
            <Array as="points">
              <mxPoint x="99.79000000000002" y="370" />
            </Array>
          </mxGeometry>
        </mxCell>
        <mxCell id="vapV2GEzPmKjDF6dZoIv-26" value="" style="endArrow=none;html=1;rounded=0;fontFamily=source code pro;fontSource=https%3A%2F%2Ffonts.googleapis.com%2Fcss%3Ffamily%3Dsource%2Bcode%2Bpro;fontSize=12;fontColor=default;" edge="1" parent="1">
          <mxGeometry width="50" height="50" relative="1" as="geometry">
            <mxPoint x="379.7299999999999" y="370.24" as="sourcePoint" />
            <mxPoint x="379.7299999999999" y="390" as="targetPoint" />
            <Array as="points">
              <mxPoint x="379.7299999999999" y="370" />
            </Array>
          </mxGeometry>
        </mxCell>
      </root>
    </mxGraphModel>
  </diagram>
</mxfile>
